# xmcd
#
# Track frame offsets: 
#        150
#        13960
#        27070
#        40311
#        54074
#        74291
#        96210
#        114451
#        127342
#        148186
#        168038
#        188771
#        206215
#        231520
#        250262
#        280621
#        300290
#
# Disc length: 4439 seconds
#
# Revision: 1
# Processed by: cddbd v1.5.2PL0 Copyright (c) Steve Scherf et al.
# Submitted via: ExactAudioCopy v1.0b3
#
DISCID=ee115511
DTITLE=Sons Of The Delta - One For The Road
DYEAR=2004
DGENRE=Blues
TTITLE0=Skinnybone
TTITLE1=Big Lumps Of Nuthin'
TTITLE2=One Sunny Day
TTITLE3=What You Want To Hear
TTITLE4=Put Away That Gun
TTITLE5=I Asked Her For Water
TTITLE6=Velcro Hold
TTITLE7=Walking Along
TTITLE8=I Want You To Stay
TTITLE9=Key To Your Door
TTITLE10=Trouble
TTITLE11=Poor Boy
TTITLE12=Global Conspiracy Blues
TTITLE13=I'm Going Out
TTITLE14=Feel Like Going Home (Bonus Live Track)
TTITLE15=Boogie Chillun (Bonus Live Track)
TTITLE16=Hurts Me Too (Bonus Live Track)
EXTD=
EXTT0=
EXTT1=
EXTT2=
EXTT3=
EXTT4=
EXTT5=
EXTT6=
EXTT7=
EXTT8=
EXTT9=
EXTT10=
EXTT11=
EXTT12=
EXTT13=
EXTT14=
EXTT15=
EXTT16=
PLAYORDER=
